# xmcd CD database file
#
# Track frame offsets:
#	150
#	18578
#	35385
#	47568
#	69225
#	93566
#	120337
#	145473
#	180456
#	200584
#	221099
#	239636
#	266590
#	288647
#
# Disc length: 4142 seconds
#
# Revision: 1
# Processed by: cddbd v1.5.2PL0 Copyright (c) Steve Scherf et al.
# Submitted via: CDex 1.51
#
DISCID=d4102c0e
DTITLE=Rita Falk - Sauerkraut-Koma
DYEAR=2013
DGENRE=Hörbuch
TTITLE0=Sauerkraut-Koma - 68
TTITLE1=Sauerkraut-Koma - 69
TTITLE2=Sauerkraut-Koma - 70
TTITLE3=Sauerkraut-Koma - 71
TTITLE4=Sauerkraut-Koma - 72
TTITLE5=Sauerkraut-Koma - 73
TTITLE6=Sauerkraut-Koma - 74
TTITLE7=Sauerkraut-Koma - 75
TTITLE8=Sauerkraut-Koma - 76
TTITLE9=Sauerkraut-Koma - 77
TTITLE10=Sauerkraut-Koma - 78
TTITLE11=Sauerkraut-Koma - 79
TTITLE12=Sauerkraut-Koma - 80
TTITLE13=Sauerkraut-Koma - 81
EXTD=YEAR: 2013
EXTT0=
EXTT1=
EXTT2=
EXTT3=
EXTT4=
EXTT5=
EXTT6=
EXTT7=
EXTT8=
EXTT9=
EXTT10=
EXTT11=
EXTT12=
EXTT13=
PLAYORDER=
